<svg viewBox="0 0 100 200" xmlns="http://www.w3.org/2000/svg">
  <!-- Head and Hat as combined shape -->
  <path d="M38 24 
           Q50 14, 62 24 
           Q64 38, 50 42 
           Q36 38, 38 24 Z" 
        fill="#0C0E0F"/>

  <!-- Hat brim -->
  <path d="M38 24 
           Q50 14, 62 24 
           Q60 7, 50 7 
           Q40 7, 38 24 Z" 
        fill="#FFD84D"/>

  <!-- Neck -->
  <rect x="47" y="42" width="6" height="6" fill="#0C0E0F"/>

  <!-- Torso -->
  <rect x="42" y="48" width="16" height="40" fill="#FFD84D"/>

  <!-- RIGHT ARM (Forward Swing) -->
  <!-- Upper -->
  <line x1="58" y1="55" x2="70" y2="45" stroke="#0C0E0F" stroke-width="5" />
  <!-- Lower -->
  <line x1="70" y1="45" x2="72" y2="25" stroke="#0C0E0F" stroke-width="5" />

  <!-- LEFT ARM (Back Swing) -->
  <!-- Upper -->
  <line x1="42" y1="55" x2="30" y2="65" stroke="#0C0E0F" stroke-width="5" />
  <!-- Lower -->
  <line x1="30" y1="65" x2="25" y2="85" stroke="#0C0E0F" stroke-width="5" />

  <!-- RIGHT LEG (Forward Step) -->
  <!-- Upper -->
  <line x1="55" y1="88" x2="62" y2="115" stroke="#FFD84D" stroke-width="6"/>
  <!-- Lower -->
  <line x1="62" y1="115" x2="64" y2="140" stroke="#0C0E0F" stroke-width="6"/>
  <!-- Foot -->
  <ellipse cx="64" cy="144" rx="7" ry="4" fill="#FF585D"/>

  <!-- LEFT LEG (Back Step) -->
  <!-- Upper -->
  <line x1="45" y1="88" x2="35" y2="100" stroke="#FFD84D" stroke-width="6"/>
  <!-- Lower -->
  <line x1="35" y1="100" x2="30" y2="125" stroke="#0C0E0F" stroke-width="6"/>
  <!-- Foot -->
  <ellipse cx="30" cy="129" rx="7" ry="4" fill="#FF585D"/>
</svg>
