<svg viewBox="0 0 100 200" xmlns="http://www.w3.org/2000/svg">
  <!-- Head and Hat as a single combined shape -->
  <path d="M38 24 
           Q50 14, 62 24 
           Q64 38, 50 42 
           Q36 38, 38 24 Z" 
        fill="#0C0E0F"/>

  <!-- Hat brim (adds hat color) -->
  <path d="M38 24 
           Q50 14, 62 24 
           Q60 7, 50 7 
           Q40 7, 38 24 Z" 
        fill="#FFD84D"/>

  <!-- Neck (now attached to head) -->
  <rect x="47" y="42" width="6" height="6" fill="#0C0E0F"/>

  <!-- Torso -->
  <rect x="42" y="48" width="16" height="40" fill="#FFD84D"/>

  <!-- Left Arm Upper -->
  <line x1="42" y1="55" x2="28" y2="70" stroke="#0C0E0F" stroke-width="5" />
  <!-- Left Arm Lower -->
  <line x1="28" y1="70" x2="32" y2="90" stroke="#0C0E0F" stroke-width="5" />

  <!-- Right Arm Upper -->
  <line x1="58" y1="55" x2="72" y2="70" stroke="#0C0E0F" stroke-width="5" />
  <!-- Right Arm Lower -->
  <line x1="72" y1="70" x2="68" y2="90" stroke="#0C0E0F" stroke-width="5" />

  <!-- Left Leg Upper -->
  <line x1="45" y1="88" x2="38" y2="115" stroke="#FFD84D" stroke-width="6"/>
  <!-- Left Leg Lower -->
  <line x1="38" y1="115" x2="36" y2="140" stroke="#0C0E0F" stroke-width="6"/>
  <!-- Left Foot -->
  <ellipse cx="36" cy="144" rx="7" ry="4" fill="#FF585D"/>

  <!-- Right Leg Upper -->
  <line x1="55" y1="88" x2="62" y2="115" stroke="#FFD84D" stroke-width="6"/>
  <!-- Right Leg Lower -->
  <line x1="62" y1="115" x2="64" y2="140" stroke="#0C0E0F" stroke-width="6"/>
  <!-- Right Foot -->
  <ellipse cx="64" cy="144" rx="7" ry="4" fill="#FF585D"/>
</svg>
