<svg viewBox="0 0 100 200" xmlns="http://www.w3.org/2000/svg">

  <!-- HEAD -->
  <circle cx="44" cy="42" r="12" fill="#0C0E0F"/>

  <!-- HAT BASE -->
  <path d="M32 38 Q44 20, 56 38 Q56 44, 32 44 Z" fill="#FFD84D"/>
  <!-- HAT BRIM -->
  <path d="M32 40 Q18 42, 20 36 Q25 34, 32 36 Z" fill="#FFD84D"/>

  <!-- NECK -->
  <rect x="41" y="52" width="6" height="6" fill="#0C0E0F"/>

  <!-- ======================================== -->
  <!-- 🟡 LAYER 1: BACK ARM (partially visible) -->
  <!-- ======================================== -->
  <!-- Arm now starts closer to torso and extends outward -->
  <line x1="41" y1="70" x2="33" y2="82" stroke="#0C0E0F" stroke-width="5"/>
  <line x1="33" y1="82" x2="20" y2="82" stroke="#0C0E0F" stroke-width="5"/>

  <!-- ============================== -->
  <!-- 🟡 LAYER 2: TORSO (middle layer) -->
  <!-- ============================== -->
  <rect x="36" y="58" width="16" height="40" fill="#FFD84D"/>

  <!-- ======================================= -->
  <!-- 🟡 LAYER 3: FRONT ARM (fully visible) -->
  <!-- ======================================= -->
  <line x1="44" y1="64" x2="52" y2="76" stroke="#0C0E0F" stroke-width="6"/>
  <line x1="52" y1="76" x2="56" y2="90" stroke="#0C0E0F" stroke-width="6"/>

  <!-- FRONT LEG (stepping back) -->
  <line x1="44" y1="98" x2="54" y2="115" stroke="#FFD84D" stroke-width="6"/>
  <line x1="54" y1="115" x2="58" y2="130" stroke="#0C0E0F" stroke-width="6"/>
  <path d="M58 130 
           L42 130 
           Q38 131, 38 134 
           Q38 136, 42 136 
           L58 136 
           Q62 135, 58 130 
           Z" fill="#FF585D"/>

  <!-- BACK LEG -->
  <line x1="44" y1="98" x2="36" y2="118" stroke="#FFD84D" stroke-width="5"/>
  <line x1="36" y1="118" x2="30" y2="134" stroke="#0C0E0F" stroke-width="5"/>
  <path d="M14 134 
           Q14 136, 18 137 
           L34 137 
           Q34 135, 30 134 
           Z" fill="#FF585D"/>

</svg>
