<svg viewBox="0 0 100 200" xmlns="http://www.w3.org/2000/svg">

  <!-- HEAD -->
  <circle cx="56" cy="42" r="12" fill="#0C0E0F"/>

  <!-- HAT BASE -->
  <path d="M68 38 Q56 20, 44 38 Q44 44, 68 44 Z" fill="#FFD84D"/>
  <!-- HAT BRIM -->
  <path d="M68 40 Q82 42, 80 36 Q75 34, 68 36 Z" fill="#FFD84D"/>

  <!-- NECK -->
  <rect x="53" y="52" width="6" height="6" fill="#0C0E0F"/>

  <!-- ======================================== -->
  <!-- 🟡 LAYER 1: BACK ARM (partially visible, swinging forward) -->
  <!-- ======================================== -->
  <line x1="59" y1="70" x2="67" y2="82" stroke="#0C0E0F" stroke-width="5"/>
  <line x1="67" y1="82" x2="80" y2="82" stroke="#0C0E0F" stroke-width="5"/>

  <!-- ============================== -->
  <!-- 🟡 LAYER 2: TORSO -->
  <!-- ============================== -->
  <rect x="48" y="58" width="16" height="40" fill="#FFD84D"/>

  <!-- ======================================= -->
  <!-- 🟡 LAYER 3: FRONT ARM (swinging backward, fully visible) -->
  <!-- ======================================= -->
  <line x1="56" y1="64" x2="48" y2="76" stroke="#0C0E0F" stroke-width="6"/>
  <line x1="48" y1="76" x2="44" y2="90" stroke="#0C0E0F" stroke-width="6"/>

  <!-- FRONT LEG (now right side, stepping back) -->
  <line x1="56" y1="98" x2="46" y2="115" stroke="#FFD84D" stroke-width="6"/>
  <line x1="46" y1="115" x2="42" y2="130" stroke="#0C0E0F" stroke-width="6"/>
  <path d="M42 130 
           L58 130 
           Q62 131, 62 134 
           Q62 136, 58 136 
           L42 136 
           Q38 135, 42 130 
           Z" fill="#FF585D"/>

  <!-- BACK LEG (now left side, stepping forward) -->
  <line x1="56" y1="98" x2="64" y2="118" stroke="#FFD84D" stroke-width="5"/>
  <line x1="64" y1="118" x2="70" y2="134" stroke="#0C0E0F" stroke-width="5"/>
  <path d="M86 134 
           Q86 136, 82 137 
           L66 137 
           Q66 135, 70 134 
           Z" fill="#FF585D"/>

</svg>
